<svg xmlns="http://www.w3.org/2000/svg" xml:space="preserve" width="2000" height="104" data-id="lg_yvWAtQM8uMJuG9R9Iz" data-version="1" viewBox="0 0 2000 104"><g data-padding="20"><g transform="translate(13.869 2.033)scale(.9609)"><path fill="#ba3b0a" d="M798.392-.204a52.204 52.204 0 1 0 0 104.408 52.204 52.204 0 1 0 0-104.408"/><rect width="443.767" height="101.7" x="404.139" y="-398.85" fill="none" rx="0" ry="0" transform="translate(458.62 400.03)"/><path fill="#ba3b0a" d="M893.622 75.8q.09-3.33-.09-25.74-.09-16.38.54-25.02 10.89 0 17.28-.09 2.25 0 3.33-1.35t1.04-3.15q-.05-1.8-1.22-3.15t-3.33-1.35q-7.74.09-21.51 0t-21.51.18q-2.16.09-3.24 1.53t-1.03 3.2q.04 1.75 1.21 3.06 1.17 1.3 3.42 1.21 6.75-.27 16.56-.18-.63 8.91-.54 25.2.18 22.32.09 25.47 0 2.16 1.35 3.33t3.15 1.22q1.8.04 3.15-1.04t1.35-3.33m33.84 4.5q1.8 0 3.15-1.21 1.35-1.22 1.35-3.29l-.09-14.13-.18-11.25q0-1.44 1.22-2.97 1.21-1.53 2.83-2.61 2.88-2.07 10.44-2.07 2.07 0 3.15-1.21 1.08-1.22 1.08-3.02 0-2.79-1.8-3.87t-5.13-1.08q-4.41 0-8.1 2.25-2.7 1.53-3.69 3.69v-2.7q0-2.16-1.39-3.37-1.4-1.22-3.29-1.22-1.8 0-3.06 1.17t-1.26 3.24v5.31q0 9.27.09 15.48l.18 18.36q0 2.07 1.35 3.29 1.35 1.21 3.15 1.21m52.74-1.43q2.97-1.26 5.67-4.05v1.35q.09 2.16 1.53 3.2 1.44 1.03 3.2.99 1.75-.05 3.06-1.22 1.3-1.17 1.21-3.33-.09-2.88-.13-6.97-.05-4.1-.05-8.19 0-4.1-.18-7.07-.36-5.94-1.53-11.34-.09-1.98-1.53-3.24 0-.09-.54-.63l-1.17-1.17q-.63-.54-1.48-1.26-.86-.72-1.58-1.08-6.21-3.06-11.74-2.16-5.54.9-10.17 4.68-4.64 3.78-7.97 9.54-2.61 4.41-3.87 9t.09 10.35 6.03 9.63q5.49 4.77 13.86 4.41 4.05-.18 7.29-1.44m-4.05-8.1q-3.15.9-6.21.45t-5.13-2.16q-7.02-6.12.09-18.18 3.6-6.03 8.37-8.23 4.77-2.21 9.09.13 1.08.72 1.89 1.8 1.53 7.38 1.53 19.53-.27.18-.45.36-1.98 2.97-4.77 4.41t-4.41 1.89m65.34 9.54q1.89 0 3.2-1.3 1.3-1.31 1.3-3.2 0-14.49-.63-55.53 0-2.16-1.35-3.28-1.35-1.13-3.15-1.08-1.8.04-3.15 1.17-1.35 1.12-1.35 3.37l.18 14.4q-2.16-1.17-6.3-1.89-12.15-2.16-19.62 6.21-6.21 7.02-6.3 16.74-.09 10.8 5.94 17.82 3.33 3.96 8.19 5.67t10.71.63q4.23-.81 8.1-3.6.45 2.25 1.62 3.06t2.61.81m-13.95-9.09q-4.41.81-7.6-.99-3.2-1.8-4.95-5.58-1.76-3.78-1.67-8.73 0-6.3 4.05-10.71 4.05-4.68 11.25-3.42 3.15.54 4.14 1.17 0 .09 3.78 3.33.09.09.18.09.18 6.75.18 18.18-.45 1.17-1.35 2.21-.9 1.03-1.71 1.66t-2.7 1.53-3.6 1.26m52.38 9.54q4.86.09 8.01-.58 3.15-.68 5.31-1.58 1.53-.54 2.97-1.35 1.89-1.08 2.43-2.79t-.04-3.33q-.59-1.62-2.07-2.38-1.49-.77-3.56-.05-1.71.99-2.88 1.58-1.17.58-3.78 1.3-2.34.54-5.85.36-12.69-.9-15.12-10.26h.27q0-.27 16.2-.36l15.39-.27q1.35 0 2.52-.45 2.97-1.71 2.79-5.4-.09-1.44-.58-3.15-.5-1.71-.86-3.06-.45-1.26-.9-2.7-.54-1.44-2.79-4.32-2.61-3.42-6.3-5.62-3.69-2.21-8.91-2.84t-9.76.77q-4.55 1.39-8.01 4.23-3.47 2.83-5.67 6.61-2.21 3.78-2.93 7.92-.54 4.5-.27 7.34.27 2.83 1.44 5.71t3.78 6.3 7.56 5.67 11.61 2.7m-14.4-27.9q1.53-4.95 5.76-8.05 4.23-3.11 9.81-2.39 5.31.63 8.91 4.77 1.8 2.43 2.61 5.13-21.87.27-27.09.54m72 25.46q1.26 1.8 3.02 1.94 1.75.13 3.24-.86 1.48-.99 1.93-2.65.45-1.67-.81-3.47l-14.04-18.9q5.58-7.74 11.25-14.58 1.17-1.44.9-3.33-.18-1.98-1.62-3.01-1.44-1.04-3.24-.9-1.8.13-3.06 1.66-5.04 6.21-9.9 12.51l-9.36-12.33q-1.26-1.71-3.06-1.8t-3.24.95q-1.44 1.03-1.84 2.74-.41 1.71.94 3.51l11.16 14.85q-6.12 9.27-11.97 18.9-1.17 1.89-.54 3.56.63 1.66 2.16 2.56t3.29.63q1.75-.27 2.83-2.25 4.95-8.64 9.99-15.75Zm24.66 15.58q.18-8.37.27-16.74 6.12 4.41 14.49 2.88 4.86-.9 8.6-3.33 3.73-2.43 5.8-5.67t3.15-6.57.99-7.2-1.08-7.29q-1.26-4.77-4-8.82-2.75-4.05-6.71-6.3-4.23-2.61-9.54-2.34t-10.71 3.51l-1.26.81q-.54-1.8-1.66-3.01-1.13-1.22-2.48-1.22-1.89 0-3.19 1.31-1.31 1.3-1.31 3.19 0 38.88-.36 56.61 0 2.16 1.35 3.33t3.15 1.22q1.8.04 3.15-1.04t1.35-3.33m13.14-22.68q-3.96.72-6.75-.81t-5.31-5.49q-.27-.54-.72-.99V49.17l1.17-1.62q.45-.81.63-1.08l.45-.45q.45-.54 3.33-2.25 6.3-3.87 11.07-1.08 4.68 2.61 6.57 9.63 1.89 7.11-.85 12.38-2.75 5.26-9.59 6.52m52.29 9.54q4.86.09 8.01-.58 3.15-.68 5.31-1.58 1.53-.54 2.97-1.35 1.89-1.08 2.43-2.79t-.04-3.33q-.59-1.62-2.07-2.38-1.49-.77-3.56-.05-1.71.99-2.88 1.58-1.17.58-3.78 1.3-2.34.54-5.85.36-12.69-.9-15.12-10.26h.27q0-.27 16.2-.36l15.39-.27q1.35 0 2.52-.45 2.97-1.71 2.79-5.4-.09-1.44-.58-3.15-.5-1.71-.86-3.06-.45-1.26-.9-2.7-.54-1.44-2.79-4.32-2.61-3.42-6.3-5.62-3.69-2.21-8.91-2.84t-9.76.77q-4.55 1.39-8.01 4.23-3.47 2.83-5.67 6.61-2.21 3.78-2.93 7.92-.54 4.5-.27 7.34.27 2.83 1.44 5.71t3.78 6.3 7.56 5.67 11.61 2.7m-14.4-27.9q1.53-4.95 5.76-8.05 4.23-3.11 9.81-2.39 5.31.63 8.91 4.77 1.8 2.43 2.61 5.13-21.87.27-27.09.54m50.31 27.44q1.8 0 3.15-1.21 1.35-1.22 1.35-3.29l-.09-14.13-.18-11.25q0-1.44 1.22-2.97 1.21-1.53 2.83-2.61 2.88-2.07 10.44-2.07 2.07 0 3.15-1.21 1.08-1.22 1.08-3.02 0-2.79-1.8-3.87t-5.13-1.08q-4.41 0-8.1 2.25-2.7 1.53-3.69 3.69v-2.7q0-2.16-1.39-3.37-1.4-1.22-3.29-1.22-1.8 0-3.06 1.17t-1.26 3.24v5.31q0 9.27.09 15.48l.18 18.36q0 2.07 1.35 3.29 1.35 1.21 3.15 1.21"/><path fill="#ba3b0a" d="M1306.182 80.04q2.16.72 3.65-.22 1.48-.95 2.02-2.61.54-1.67-.09-3.33-.63-1.67-2.7-2.3-.72-.27-2.16-.67-1.44-.41-2.65-.77-1.22-.36-1.4-.54-1.17-.72-1.44-2.7t-.36-5.22q-.27-5.31-.09-13.77 0-1.98.09-6.3l3.96-.18q2.25-.18 3.24-1.62t.86-3.19q-.14-1.76-1.35-3.02-1.22-1.26-3.47-1.17l-2.97.18.27-8.55q.09-2.25-1.21-3.42-1.31-1.17-3.06-1.21-1.76-.05-3.2.99-1.44 1.03-1.53 3.28-.18 4.86-.27 9.63l-2.07.18q-2.16.36-3.1 1.85-.95 1.48-.77 3.19t1.44 2.93q1.26 1.21 3.51 1.03l.72-.09q-.09 3.78-.09 5.4-.18 8.64.09 14.13.27 7.11 1.26 9.54 1.35 3.06 3.38 4.68 2.02 1.62 4.45 2.52 1.17.45 2.88.81 1.62.36 2.16.54"/><rect width="33.598" height="61.537" x="609.223" y="-378.768" fill="none" rx="0" ry="0" transform="translate(172.87 397.4)"/><path fill="#fff" d="M802.562 65.1q.05-2.01-.06-15.57-.05-9.91.33-15.14 6.59 0 10.46-.05 1.36 0 2.01-.82.66-.82.63-1.91t-.74-1.9q-.71-.82-2.01-.82-4.69.05-13.02 0-8.33-.06-13.01.11-1.31.05-1.96.92-.66.88-.63 1.94t.74 1.85q.7.79 2.07.73 4.08-.16 10.02-.1-.39 5.39-.33 15.24.11 13.51.05 15.41 0 1.31.82 2.02t1.91.73q1.08.03 1.9-.62.82-.66.82-2.02"/></g><path fill="transparent" stroke="transparent" stroke-width=".996" d="M720.874.203h563.788v103.594H720.874z"/></g></svg>